<?xml version="1.0" encoding="utf-8"?>
<!-- Generator: Adobe Illustrator 24.1.0, SVG Export Plug-In . SVG Version: 6.00 Build 0)  -->
<svg version="1.1" id="Layer_1" xmlns="http://www.w3.org/2000/svg" xmlns:xlink="http://www.w3.org/1999/xlink" x="0px" y="0px"
	 viewBox="0 0 200 132.9" enable-background="new 0 0 200 132.9" xml:space="preserve">
<path fill="#6477B9" d="M143.6,1.7l1,44.3c0,0,0,0.1,0,0.1l-5.7,67.3c0,0,0,0.1,0,0.1v12c0,1,0.9,1.8,1.9,1.7l12.6-1.7
	c0.8-0.1,1.4-0.7,1.5-1.5l3.9-29.7l4-39.2c0,0,0-0.1,0-0.1l0.4-8.9l-1-43.6c0-0.9-0.7-1.7-1.6-1.7L145.4,0
	C144.4,0,143.6,0.7,143.6,1.7z"/>
<path fill="#6477B9" d="M104.3,4.1H93.5c-1.7,0-3,1.4-3,3.2l1.2,44.2c0,0.1,0,0.3,0,0.4l-3.5,76.5c0,0.3,0,0.5,0.1,0.7
	c0.1,0.3,0.4,0.6,0.6,0.7l6,3c0.2,0.1,0.3,0.1,0.5,0.1c1.8,0.1,8.7-1,8.7-1c0.7-0.2,1.3-0.8,1.3-1.6l2.8-52.2c0-0.1,0-0.1,0-0.2V51
	l-1-43.9C107.3,5.4,105.9,4.1,104.3,4.1z"/>
<path fill="#6477B9" d="M54.1,45.5l-1.8-42c0-1.1-0.9-2-2-1.9L36.9,2.5c-1,0.1-1.8,1-1.7,2.1l1.3,42.1c0,0.1,0,0.2,0,0.2l0.4,38.5
	l-2.9,38.5c0,0.9,0.4,1.6,1.2,2l11.1,3.1c0.7,0.2,1.5-0.1,1.8-0.8c0.1-0.2,0.2-0.4,0.2-0.7c0,0,4.8-42.9,5-47.2L54.1,45.5z"/>
<path fill="#35B2AC" d="M2.9,35.4l77.9-10.3c0.2,0,0.4,0,0.6,0l69,0.2c0.2,0,0.3,0,0.5,0l46.5,5.7c0.9,0.1,1.7,1.7,1.7,3.7l0.8,42
	c0,2.1-0.7,3.9-1.7,4l-24.4,5.8c-0.3,0.1-0.6,0.1-0.9,0.1h-40.8l-62.5,1.7l-46.1,2.1c-0.4,0-0.8-0.1-1.1-0.1L1.8,85.7
	c-1-0.1-1.8-1.9-1.7-4L1.2,39C1.2,37.1,2,35.5,2.9,35.4z"/>
</svg>
