<svg xmlns="http://www.w3.org/2000/svg" viewBox="0 0 4000 1600"><defs><style>.a179d191-ae2c-465d-bd51-009e553e661a{fill:#e00000;}.afacec04-38b3-4181-99e1-fc540922ea03{fill:#ff6ba4;}</style></defs><g id="f398d7c1-574d-4382-b9d2-94b639b83154" data-name="Layer 4"><g id="b8053287-23c9-4057-aefe-53e6c9f77b24" data-name="primary"><g id="ac6d88fb-45ed-4dc3-84f4-212cacd46a48" data-name="Building"><path class="a179d191-ae2c-465d-bd51-009e553e661a" d="M688.89,692.23v774.44H911.11V692.23c0-49.1-49.74-88.89-111.11-88.89h0C738.63,603.34,688.89,643.13,688.89,692.23Z"/><path class="a179d191-ae2c-465d-bd51-009e553e661a" d="M911.11,462.56V1467.24h222.22V462.56c0-49.09-49.74-88.89-111.11-88.89h0C960.86,373.67,911.11,413.47,911.11,462.56Z"/><path class="a179d191-ae2c-465d-bd51-009e553e661a" d="M466.67,974.3v492.37H688.89V974.3c0-51.65-49.75-93.52-111.11-93.52h0C516.41,880.78,466.67,922.65,466.67,974.3Z"/></g><path class="a179d191-ae2c-465d-bd51-009e553e661a" d="M1736.74,1200a20.45,20.45,0,0,1-16.81-7.88q-6.32-7.87-4.19-19.42l144.89-680.41q2.11-11.52,12.08-19.42t20.48-7.87h299.25q142.79,0,210.52,65.11t42.53,181.64q-15.75,73.5-60.38,125a329.05,329.05,0,0,1-104.48,80.84l82.95,247.8a53.46,53.46,0,0,1,1.58,5.78,11.33,11.33,0,0,1-.53,5.78,29.75,29.75,0,0,1-10,16.27,25.84,25.84,0,0,1-17.33,6.83H2159.88q-20,0-27.81-10t-10-18.38l-58.79-216.31h-75.6l-46.2,217.36q-2.12,11.55-12.08,19.42t-21.53,7.88Zm287.7-417.91h99.75q36.75,0,59.31-20.47a92.13,92.13,0,0,0,28.88-50.92q6.3-31.5-6.81-53.55t-50.94-22.06h-99.75Z"/></g><g id="afceb861-b810-49ce-aaac-a904ab46b6d6" data-name="secondary"><path class="afacec04-38b3-4181-99e1-fc540922ea03" d="M424.06,1342.2c-39.72,0-76.35-4.93-109.12-14.7-43.93-13.09-81.32-34.84-111.13-64.65-49-49-74.32-117.21-73.16-197.21.93-64.12,18.5-136.54,52.23-215.24,30.36-70.84,72.82-144.82,126.19-219.88a1652.86,1652.86,0,0,1,178.08-210c68.29-68.29,139.73-128.15,212.34-177.91,79-54.14,157.06-94.65,232.07-120.39,86.07-29.55,167.54-39.4,242.12-29.27,85.69,11.64,160.55,49,222.51,110.9,51.51,51.52,84.85,111.08,99.1,177.05,13,60.35,9.73,125-9.83,192.14-17,58.2-46.27,118.6-87.17,179.52-36.93,55-83.34,110.61-137.92,165.2-148.82,148.82-352,283-543.55,359-101.75,40.36-194.3,62.29-275.07,65.17Q432.81,1342.19,424.06,1342.2Zm-94.54-205c24.62,24.61,71.17,28.3,105.89,27.07,59.56-2.13,134.21-20.37,215.87-52.76,82.19-32.6,169.82-78.91,253.4-133.92,85.05-56,164.57-120.13,230-185.53,94-94,156.3-186.94,180.12-268.72,23-79,8.92-140.55-44.3-193.77-34.3-34.3-73.79-54.08-120.72-60.45s-100.86.79-160.48,21.25C870.89,331,737.21,421.83,612.85,546.19,494.77,664.27,397.61,800.68,346.29,920.43c-24.2,56.46-37.3,107.56-37.88,147.79C307.73,1115.35,324.13,1131.76,329.52,1137.15Z"/><path class="afacec04-38b3-4181-99e1-fc540922ea03" d="M2695.37,1210.5q-87.16,0-144.37-21t-88.21-53q-31-32-41.47-68.78t-5.25-68.25q2.08-9.45,10.49-16.28t17.86-6.83h174.29q12.61,0,18.91,4.74t11.55,14.17a47.54,47.54,0,0,0,14.7,21.53q10.5,8.92,27.83,12.59t42.51,3.67q45.15,0,72.46-20.46t34.65-54.08q7.33-33.59-12.07-48.82t-63.54-15.23H2641.82q-11.55,0-17.86-8.39c-4.2-5.59-5.25-11.91-3.14-18.91l14.71-72.45q3.13-14.7,11-24.67t16.28-14.19L2846.57,643.5H2562a21.4,21.4,0,0,1-17.33-8.39A21.84,21.84,0,0,1,2540,616.2l26.25-123.91q2.11-11.52,12.08-19.42t21.53-7.87h510.3q11.53,0,17.85,7.87c4.2,5.25,5.6,11.74,4.2,19.42L3108,603.59a54.74,54.74,0,0,1-11,23.11,84.09,84.09,0,0,1-15.22,14.7L2915.87,756.9,2919,759q54.58,10.5,94,35.17T3069.7,863q17.33,44.12,2.62,111.3-15.75,71.41-69.31,124.43t-132.83,82.43Q2790.92,1210.47,2695.37,1210.5Z"/><path class="afacec04-38b3-4181-99e1-fc540922ea03" d="M3302.26,1200a21.91,21.91,0,0,1-17.32-7.88q-6.86-7.87-4.72-19.42l110.25-512.41H3209.86q-11.57,0-18.38-7.87T3186.76,633l30.46-140.71q2.09-11.52,12.06-19.42t20.48-7.87h590.1q11.54,0,18.37,7.87c4.55,5.25,6.13,11.74,4.74,19.42L3832.51,633A34,34,0,0,1,3800,660.29H3619.36L3509.11,1172.7a34,34,0,0,1-32.55,27.3Z"/></g></g></svg>