<svg xmlns="http://www.w3.org/2000/svg" viewBox="0 0 4000 1600"><defs><style>.e801a164-4d8a-4235-a776-eac40fcec477{fill:#0003bd;}.a7181010-a512-4519-8791-b3e5cd2b6f8d{fill:none;stroke:#56c4b6;stroke-miterlimit:10;stroke-width:177.78px;}.a23c2993-9c09-4095-ae16-e39a650f78e6{fill:#56c4b6;}</style></defs><g id="f099f21d-9466-4d33-b79c-c700ed255b7f" data-name="Layer 1"><g id="b9d7532b-d52f-497c-a981-64eb078615c8" data-name="Building"><path class="e801a164-4d8a-4235-a776-eac40fcec477" d="M688.89,692.23v774.44H911.11V692.23c0-49.1-49.74-88.89-111.11-88.89h0C738.63,603.34,688.89,643.13,688.89,692.23Z"/><path class="e801a164-4d8a-4235-a776-eac40fcec477" d="M911.11,462.56V1467.24h222.22V462.56c0-49.09-49.74-88.89-111.11-88.89h0C960.86,373.67,911.11,413.47,911.11,462.56Z"/><path class="e801a164-4d8a-4235-a776-eac40fcec477" d="M466.67,974.3v492.37H688.89V974.3c0-51.65-49.75-93.52-111.11-93.52h0C516.41,880.78,466.67,922.65,466.67,974.3Z"/></g><path id="a8cfe6bc-2fd1-4bde-8741-3c75f926aee6" data-name="Ellipse" class="a7181010-a512-4519-8791-b3e5cd2b6f8d" d="M266.67,1200c266.66,266.67,1466.66-533.33,1066.66-933.33S0,933.33,266.67,1200Z"/><path class="e801a164-4d8a-4235-a776-eac40fcec477" d="M1736.74,1200a20.45,20.45,0,0,1-16.81-7.88q-6.32-7.87-4.19-19.42l144.89-680.41q2.11-11.52,12.08-19.42t20.48-7.87h299.25q142.79,0,210.52,65.11t42.53,181.64q-15.75,73.5-60.38,125a329.05,329.05,0,0,1-104.48,80.84l82.95,247.8a53.46,53.46,0,0,1,1.58,5.78,11.33,11.33,0,0,1-.53,5.78,29.75,29.75,0,0,1-10,16.27,25.84,25.84,0,0,1-17.33,6.83H2159.88q-20,0-27.81-10t-10-18.38l-58.79-216.31h-75.6l-46.2,217.36q-2.12,11.55-12.08,19.42t-21.53,7.88Zm287.7-417.91h99.75q36.75,0,59.31-20.47a92.13,92.13,0,0,0,28.88-50.92q6.3-31.5-6.81-53.55t-50.94-22.06h-99.75Z"/><path class="a23c2993-9c09-4095-ae16-e39a650f78e6" d="M2695.37,1210.5q-87.16,0-144.37-21t-88.21-53q-31-32-41.47-68.78t-5.25-68.25q2.08-9.45,10.49-16.28t17.86-6.83h174.29q12.61,0,18.91,4.74t11.55,14.17a47.54,47.54,0,0,0,14.7,21.53q10.5,8.92,27.83,12.59t42.51,3.67q45.15,0,72.46-20.46t34.65-54.08q7.33-33.59-12.07-48.81t-63.54-15.24H2641.82q-11.55,0-17.86-8.39c-4.2-5.59-5.25-11.91-3.14-18.91l14.71-72.45q3.13-14.7,11-24.67t16.28-14.19L2846.57,643.5H2562a21.4,21.4,0,0,1-17.33-8.39A21.84,21.84,0,0,1,2540,616.2l26.25-123.91q2.11-11.52,12.08-19.42t21.53-7.87h510.3q11.53,0,17.84,7.87c4.21,5.25,5.61,11.74,4.21,19.42L3108,603.59a54.74,54.74,0,0,1-11,23.11,84.09,84.09,0,0,1-15.22,14.7L2915.87,756.9,2919,759q54.58,10.5,94,35.17T3069.7,863q17.33,44.12,2.62,111.3-15.75,71.41-69.31,124.44t-132.83,82.42Q2790.92,1210.48,2695.37,1210.5Z"/><path class="a23c2993-9c09-4095-ae16-e39a650f78e6" d="M3302.26,1200a21.91,21.91,0,0,1-17.32-7.88q-6.86-7.87-4.72-19.42l110.25-512.41H3209.86q-11.55,0-18.38-7.87T3186.76,633l30.46-140.71q2.09-11.52,12.06-19.42t20.48-7.87h590.1q11.54,0,18.37,7.87c4.55,5.25,6.13,11.74,4.74,19.42L3832.51,633A34,34,0,0,1,3800,660.29H3619.36L3509.11,1172.7a34,34,0,0,1-32.55,27.3Z"/></g></svg>