<svg id="ecc9171b-ef7d-4c08-973c-37bca3f0afa6" data-name="Layer 1" xmlns="http://www.w3.org/2000/svg" viewBox="0 0 3732.84 1378.19"><g id="a1f8d119-9b00-4777-9aa5-78fdae3770b1" data-name="Building"><path d="M558.28,603.18v774.44H780.5V603.18c0-49.09-49.75-88.89-111.11-88.89h0C608,514.29,558.28,554.09,558.28,603.18Z" fill="#0003bd"/><path d="M780.5,373.52V1378.19h222.22V373.52c0-49.1-49.75-88.89-111.11-88.89h0C830.24,284.63,780.5,324.42,780.5,373.52Z" fill="#0003bd"/><path d="M336.05,885.25v492.37H558.28V885.25c0-51.65-49.75-93.52-111.11-93.52h0C385.8,791.73,336.05,833.6,336.05,885.25Z" fill="#0003bd"/></g><path id="e892e26d-b748-43c0-8e3c-6f093b2a94a3" data-name="Ellipse" d="M136.05,1111c266.67,266.67,1466.67-533.33,1066.67-933.33S-130.61,844.29,136.05,1111Z" fill="none" stroke="#56c4b6" stroke-miterlimit="10" stroke-width="177.78"/><path d="M1606.13,1111a20.47,20.47,0,0,1-16.82-7.87q-6.3-7.87-4.18-19.43L1730,403.25q2.1-11.53,12.08-19.42t20.48-7.88h299.25q142.78,0,210.52,65.11t42.53,181.64q-15.75,73.5-60.38,124.95A329.19,329.19,0,0,1,2150,828.5L2233,1076.29a53.59,53.59,0,0,1,1.58,5.79,11.34,11.34,0,0,1-.53,5.78,29.73,29.73,0,0,1-10,16.26,25.8,25.8,0,0,1-17.33,6.83H2029.27q-19.95,0-27.82-10t-10-18.37l-58.8-216.32h-75.59l-46.2,217.36q-2.12,11.56-12.08,19.43t-21.53,7.87ZM1893.83,693h99.75q36.75,0,59.31-20.46t28.88-50.93q6.3-31.5-6.82-53.54T2024,546h-99.75Z" fill="#0003bd"/><path d="M2564.76,1121.45q-87.16,0-144.38-21t-88.2-53q-31-32-41.47-68.79t-5.25-68.25q2.09-9.43,10.49-16.28t17.86-6.83H2488.1q12.62,0,18.91,4.74t11.55,14.17a47.48,47.48,0,0,0,14.7,21.53q10.5,8.94,27.83,12.6T2603.6,944q45.15,0,72.46-20.47t34.65-54.08q7.34-33.59-12.08-48.81T2635.1,805.4H2511.21q-11.55,0-17.86-8.39t-3.14-18.9l14.7-72.46q3.15-14.68,11-24.67t16.28-14.19L2716,554.45H2431.41a21.37,21.37,0,0,1-17.32-8.39,21.8,21.8,0,0,1-4.74-18.91l26.25-123.9q2.12-11.53,12.08-19.42t21.53-7.88h510.3q11.53,0,17.84,7.88t4.21,19.42l-24.15,111.29a54.57,54.57,0,0,1-11,23.11,83.51,83.51,0,0,1-15.22,14.71l-165.9,115.5,3.15,2.09q54.6,10.5,94,35.17t56.71,68.78q17.31,44.11,2.62,111.3-15.75,71.41-69.31,124.44t-132.83,82.42Q2660.31,1121.43,2564.76,1121.45Z" fill="#56c4b6"/><path d="M3171.65,1111a21.93,21.93,0,0,1-17.33-7.87q-6.84-7.87-4.71-19.43l110.25-512.4H3079.25q-11.57,0-18.38-7.88T3056.15,544l30.46-140.7q2.08-11.53,12.06-19.42t20.48-7.88h590.1q11.52,0,18.37,7.88t4.74,19.42L3701.9,544a34,34,0,0,1-32.54,27.3H3488.75l-110.25,512.4A34,34,0,0,1,3346,1111Z" fill="#56c4b6"/></svg>